<?xml version="1.0" standalone="no"?>
<!DOCTYPE svg PUBLIC "-//W3C//DTD SVG 20010904//EN"
 "http://www.w3.org/TR/2001/REC-SVG-20010904/DTD/svg10.dtd">
<svg version="1.0" xmlns="http://www.w3.org/2000/svg"
 width="209.000000pt" height="131.000000pt" viewBox="0 0 209.000000 131.000000"
 preserveAspectRatio="xMidYMid meet">

<g transform="translate(0.000000,131.000000) scale(0.100000,-0.100000)"
fill="#000000" stroke="none">
<path d="M0 655 l0 -655 1045 0 1045 0 0 655 0 655 -1045 0 -1045 0 0 -655z
m1169 302 c59 -30 66 -49 14 -42 -21 3 -58 6 -83 8 l-45 2 0 -87 c0 -52 -4
-88 -10 -88 -6 0 -10 36 -10 88 l0 87 -45 -2 c-25 -2 -62 -5 -82 -8 -47 -7
-49 7 -5 34 74 46 186 49 266 8z m-159 -72 c0 -25 -22 -120 -30 -128 -11 -12
-84 28 -109 59 -12 15 -21 37 -21 50 0 25 15 30 108 33 39 1 52 -2 52 -14z
m193 9 c30 -6 37 -11 37 -30 0 -31 -46 -80 -93 -99 -42 -17 -40 -19 -56 55
-18 77 -16 80 32 80 23 0 59 -3 80 -6z m-293 -224 c0 -11 -6 -20 -14 -20 -10
0 -16 -14 -18 -42 -3 -38 -6 -43 -28 -43 -22 0 -25 5 -28 43 -2 28 -8 42 -18
42 -8 0 -14 9 -14 20 0 18 7 20 60 20 53 0 60 -2 60 -20z m116 -44 c13 -33 24
-61 24 -63 0 -2 -10 -3 -23 -3 -16 0 -28 10 -39 33 l-16 32 -12 -32 c-9 -25
-18 -33 -37 -33 -27 0 -27 6 8 88 16 37 23 43 45 40 21 -2 30 -14 50 -62z
m137 44 c4 -15 0 -20 -14 -20 -16 0 -19 -7 -19 -45 0 -41 -2 -45 -25 -45 -23
0 -25 4 -25 41 0 32 -4 42 -20 46 -11 3 -20 14 -20 24 0 16 8 19 59 19 50 0
59 -3 64 -20z m106 -22 c35 -82 35 -88 7 -88 -19 0 -27 8 -37 38 l-12 37 -12
-35 c-9 -27 -18 -36 -38 -38 -32 -4 -31 -5 -11 44 9 22 20 49 25 62 6 15 17
22 34 22 21 0 29 -8 44 -42z m-649 -222 c0 -7 -9 -16 -20 -19 -16 -4 -20 -14
-20 -46 0 -37 -2 -41 -25 -41 -23 0 -25 4 -25 45 0 38 -3 45 -20 45 -11 0 -20
7 -20 15 0 12 14 15 65 15 49 0 65 -3 65 -14z m110 -32 c25 -59 25 -74 -1 -74
-13 0 -23 10 -30 30 -6 17 -14 30 -18 30 -4 0 -12 -13 -18 -30 -8 -20 -18 -30
-32 -30 -26 0 -26 5 0 69 19 44 25 51 50 51 24 0 31 -7 49 -46z m140 31 c0 -8
-6 -15 -14 -15 -10 0 -16 -14 -18 -42 -3 -38 -6 -43 -28 -43 -22 0 -25 5 -28
43 -3 34 -7 42 -23 42 -19 0 -25 11 -12 23 3 4 33 7 65 7 45 0 58 -3 58 -15z
m115 -41 c14 -31 25 -58 25 -60 0 -2 -10 -4 -23 -4 -16 0 -28 10 -39 33 l-16
32 -12 -32 c-9 -25 -18 -33 -36 -33 -13 0 -24 2 -24 4 0 2 10 29 21 60 19 50
25 56 51 56 25 0 31 -7 53 -56z m150 21 c0 -23 -5 -31 -22 -33 -13 -2 -23 -12
-25 -23 -6 -41 -23 -17 -26 37 l-3 55 38 -3 c35 -3 38 -5 38 -33z m111 9 c32
-49 -10 -109 -60 -86 -21 9 -26 18 -26 50 0 21 5 43 12 50 20 20 56 14 74 -14z
m45 -10 c6 -29 9 -27 24 22 8 24 30 11 33 -19 4 -33 22 -26 22 9 0 13 5 24 10
24 13 0 13 -35 -1 -83 -8 -32 -13 -36 -25 -26 -8 6 -14 22 -14 35 0 37 -17 28
-24 -12 -4 -20 -12 -34 -18 -32 -9 3 -33 77 -38 116 0 2 6 2 13 0 6 -3 15 -18
18 -34z m189 26 c0 -5 -11 -10 -25 -10 -14 0 -25 -4 -25 -10 0 -5 12 -10 26
-10 31 0 28 -24 -5 -28 -30 -5 -21 -26 12 -30 38 -5 23 -22 -19 -22 l-34 0 0
60 0 60 35 0 c19 0 35 -4 35 -10z m105 -10 c4 -12 1 -27 -5 -35 -9 -10 -9 -19
0 -35 18 -34 1 -38 -23 -6 -21 29 -21 29 -27 7 -9 -41 -25 -22 -28 34 l-3 55
40 0 c31 0 41 -4 46 -20z"/>
<path d="M1090 405 c0 -8 7 -15 15 -15 8 0 15 7 15 15 0 8 -7 15 -15 15 -8 0
-15 -7 -15 -15z"/>
<path d="M1187 414 c-14 -14 -7 -62 10 -68 23 -9 35 6 31 40 -3 28 -26 43 -41
28z"/>
<path d="M1530 405 c0 -10 7 -15 18 -13 21 4 19 22 -2 26 -10 2 -16 -3 -16
-13z"/>
</g>
</svg>
